<?xml version="1.0" encoding="utf-8"?>
<!-- Generator: Adobe Illustrator 25.0.1, SVG Export Plug-In . SVG Version: 6.00 Build 0)  -->
<svg version="1.1" id="Layer_1" xmlns="http://www.w3.org/2000/svg" xmlns:xlink="http://www.w3.org/1999/xlink" x="0px" y="0px"
	 viewBox="0 0 600 600" style="enable-background:new 0 0 600 600;" xml:space="preserve">
<style type="text/css">
	.st0{fill:#00228F;}
</style>
<g>
	<path class="st0" d="M502.98,455.5c9.8-15.74,25.31-27.67,43.11-33.01l9.93-2.98l-10.06-2.5c-11.08-2.75-22.67-0.91-32.9,0.72
		l-60.21,9.58c-4.57-7.3-8.4-14.29-6.43-21.48l0.86-3.14c2.1-4.7,5.98-7.36,11.2-10.82c1.22-0.61,2.4-1.4,3.47-2.46
		c3.6-3.54,4.7-8.36,5.77-13.03c0.56-2.47,1.1-4.81,1.98-6.89c0.96-2.28,2.41-4.37,3.94-6.59c2.15-3.11,4.38-6.33,5.42-10.35
		c2.76-10.72-4.5-20.72-9.07-25.72c-18.39-20.13-43.43-26.68-61.21-28.64c-19.51-2.14-39.07-0.04-58.15,2.54
		c8.76-15.27,18.22-33.73,24.58-56.26c0.43-1.51-0.45-3.08-1.96-3.51c-1.5-0.43-3.08,0.45-3.51,1.96
		c-5.29,18.73-13.04,36.14-25.91,58.21c-0.11,0.18-0.19,0.37-0.25,0.57c-0.45,0.06-0.9,0.13-1.35,0.19l-13.84,1.93
		c7.26-11.85,20.71-34.29,28.6-50.6c0.68-1.41,0.09-3.11-1.32-3.79c-1.4-0.68-3.11-0.09-3.8,1.32
		c-8.67,17.92-24.26,43.55-30.56,53.73c-0.06,0.11-0.13,0.21-0.18,0.31c-0.01,0.02-0.02,0.04-0.03,0.05l-23.21,3.24
		c-1.9-1.12-3.84-2.54-5.88-4.05c-1.77-1.31-3.59-2.66-5.44-3.83c4.46-3.51,8.34-8.14,11.28-13.62c5.99-11.17,7.26-24.37,3.39-35.31
		c-4.91-13.88-17.38-25.39-33.36-30.79c-13.98-4.72-28.59-4.77-43.59-4.39c-29.49,0.75-53.97,2.89-77.62,10.88
		c-6.96,2.35-13.82,5.24-20.46,8.03c-8.37,3.52-17.02,7.15-25.75,9.66c-12.55,3.61-30.67,6.08-45.76-2.59l-8.18-4.7l4.23,8.44
		c2.1,4.19,5.75,8.24,9.63,12.54c6.07,6.73,12.34,13.69,10.95,19.86c-0.8,3.54-5.28,8.54-9.61,13.37
		c-4.25,4.74-8.64,9.64-10.65,14.28c-4.9,11.3-7.34,23.68-7.06,35.79c0.06,2.72,3.29,15.51,3.94,18.05
		c4.17,16.38,4.66,16.55,6.27,17.12l1.89,0.64l1.27-1.5c19.3-22.81,42.97-40.8,68.91-53.23c-9.24,13.24-15.85,36.06-12.45,55.18
		l0.07-0.01c-1.08,5.37-1.41,11.43-0.67,18.3c2.2,20.44,10.71,34.99,24.61,42.06c6.43,3.27,13.82,4.9,22.16,4.9
		c13.02,0,28.34-4,45.85-11.94c-2.14,5.63-2.17,11.49-2.2,17.88c-0.02,4.99-0.05,10.64-1.03,17.15l0.23,0.03
		c-4.25,11.45-2.12,22.92,6.29,33.16c-17.57,22.93-34.28,44.27-46.76,60.23c-5.14,6.57-9.58,12.23-13.08,16.74
		c-1.61,2.07-1.8,4.87-0.47,7.14c1.33,2.26,3.85,3.48,6.46,3.09c5.69-0.85,11.44-0.9,17.11-0.15l2.14,0.28l0.84-1.99
		c2.68-6.32,25.21-35.58,49.06-66.57c1.03-1.34,2.07-2.69,3.11-4.05c11.73,6.45,25.61,10.27,37.25,10.27c1.72,0,3.39-0.08,4.99-0.25
		c20.29-2.13,39.04-10.97,55.02-19.09c2.42-1.23,4.84-2.48,7.26-3.72c14.32-7.38,29.14-15.01,44.73-19.28
		c1.1-0.3,2.22-0.55,3.34-0.82l6.68,24.02c1.33,4.78,2.71,9.72,5.41,14.22c6.73,11.2,19.36,15.9,32.31,15.9
		c7.2,0,14.5-1.45,20.93-4.05c10.45-4.22,19.73-10.72,28.7-17c6.03-4.22,12.27-8.59,18.73-12.15c22.26-12.28,39.96-8.93,49.09-1.71
		l6.72,5.32l-2.21-8.28C541.06,477.19,523.48,460.4,502.98,455.5z M56.21,368.65c-2.32-8-6.45-24.8-6.53-27.11
		c-0.26-11.3,2.02-22.85,6.59-33.4c1.64-3.79,5.72-8.35,9.66-12.75c5.03-5.62,9.79-10.93,10.92-15.91
		c2.04-9.04-5.23-17.11-12.27-24.91c-1.01-1.12-2.01-2.23-2.96-3.31c14.28,4.39,29.36,2.06,40.4-1.1c9.06-2.6,17.87-6.3,26.39-9.88
		c6.55-2.75,13.32-5.6,20.08-7.88c22.97-7.77,46.97-9.85,75.94-10.59c14.47-0.37,28.54-0.33,41.63,4.09
		c14.34,4.84,25.48,15.05,29.82,27.3c3.34,9.46,2.21,20.95-3.04,30.73c-4.76,8.88-12.24,15.16-20.51,17.24
		c-8.46,2.13-17.62,0.61-26.47-0.85c-1.52-0.25-3.03-0.5-4.55-0.74C173.72,289.13,103.25,315.56,56.21,368.65z M138.66,318.3
		l-0.44-0.8c32.38-13.05,67.69-17.65,102.22-12.32c1.49,0.23,2.99,0.48,4.49,0.73c9.43,1.56,19.18,3.17,28.78,0.76
		c3.06-0.77,6.02-2.01,8.81-3.66l-0.59,1.09c2.16,1.17,4.35,2.79,6.67,4.52c0.29,0.22,0.59,0.44,0.89,0.66l-5.56,0.78
		c-34.42,4.8-123.78,26.16-137.44,31.57c-8.63,3.41-20.64,10.22-27.73,23.01C119.67,345.66,128.37,323.91,138.66,318.3z
		 M140.43,433.21c-15.29-7.78-20.15-24.74-21.53-37.6c-3.16-29.3,14.4-42.67,29.69-48.72c12.87-5.09,102.55-26.54,136.14-31.23
		l58.28-8.13c21.37-2.98,43.46-6.06,65.13-3.68c16.8,1.85,40.44,8,57.63,26.82c3.8,4.16,9.86,12.35,7.77,20.47
		c-0.78,3.04-2.63,5.7-4.58,8.53c-1.63,2.35-3.31,4.79-4.5,7.6c-1.07,2.53-1.69,5.23-2.28,7.83c-0.92,4.05-1.8,7.87-4.21,10.24
		c-0.26,0.26-0.53,0.49-0.81,0.7l-0.06-0.09l-1.38,0.92c-0.05,0.03-0.09,0.06-0.14,0.09c-4.2,1.88-10.02,0.37-16.13-1.54
		c-39.04-12.22-85.41-10.57-137.81,4.93c-7.42,2.19-15.16,4.09-22.65,5.92c-18.41,4.5-37.44,9.16-54.15,18.77
		c-4.05,2.33-7.99,4.45-11.85,6.42l-0.36-0.36c-0.36,0.36-0.69,0.72-1.02,1.08C180.96,437.57,156.52,441.4,140.43,433.21z
		 M227.67,419.99c16-9.21,34.64-13.77,52.67-18.17c7.55-1.85,15.37-3.76,22.92-5.99c51.29-15.17,96.54-16.83,134.5-4.95
		c2.63,0.82,5.98,1.86,9.49,2.35c-2.63,2.49-4.74,5.45-6.03,9.49c-39.05,8.71-79,15.15-118.79,19.13c-3.63,0.36-7.7,0.7-12.08,1.07
		c-14.07,1.18-31.14,2.61-47.59,5.87l-1.08,0.08l-0.11,0.16c-21.26,4.34-41.32,11.82-52.29,25.9c0.05-2.01,0.08-3.95,0.09-5.77
		c0.04-9.36,0.08-15.78,5.75-22.35C219.18,424.72,223.36,422.46,227.67,419.99z M212.13,460.65c8.53-12.86,25.54-20.23,44.48-24.73
		c-13.76,19.08-29.05,39.46-43.9,58.9C206.61,486.84,202.55,475.08,212.13,460.65z M219.94,514.77
		c-26.69,34.66-44,57.28-48.81,65.87c-5.54-0.56-11.14-0.43-16.69,0.4c-0.3,0.05-0.55-0.06-0.71-0.34
		c-0.16-0.27-0.14-0.53,0.06-0.78c3.5-4.5,7.93-10.16,13.07-16.72c24.75-31.62,66.05-84.37,97.88-128.87l16.54-1.26
		C265.81,455.19,241.54,486.72,219.94,514.77z M375.32,476.65c-16.17,4.43-31.25,12.19-45.83,19.7c-2.41,1.24-4.82,2.48-7.24,3.71
		c-15.52,7.89-33.71,16.47-53.04,18.5c-11.15,1.18-25.82-2.29-38.16-8.9c21.53-27.98,44.5-58.04,58.3-78.28l0.6-0.89
		c7.35-0.8,14.43-1.39,20.86-1.93c4.41-0.37,8.51-0.71,12.17-1.08c39.26-3.92,78.68-10.21,117.24-18.73
		c-0.44,8.55,4.47,16.3,9.24,23.83c1.55,2.45,3.02,4.76,4.3,7.1c5.3,9.65,7.35,21.29,5.73,32.19c-7.82,2.69-16.73,1.86-25.37,1.05
		c-1.09-0.1-2.18-0.2-3.27-0.3C409.97,470.82,391.81,472.13,375.32,476.65z M490.17,497.27c-6.73,3.71-13.09,8.17-19.25,12.47
		c-9.11,6.38-17.72,12.4-27.57,16.38c-21.19,8.55-39.64,1.49-46.24-9.51c-2.31-3.84-3.58-8.41-4.81-12.82l-6.6-23.71
		c13.46-2.62,28.15-3.23,44.65-1.79c1.07,0.09,2.15,0.19,3.23,0.3c9.86,0.92,20.06,1.87,29.51-2l1.44-0.59l0.28-1.53
		c2.34-12.79,0.19-26.12-6.08-37.52c-0.81-1.48-1.7-2.95-2.61-4.42l57.82-9.2c6.15-0.98,12.81-2.04,19.41-2.05
		c-15.68,7.35-28.94,19.62-37.34,34.85l-1.96,3.54l4,0.64c17.5,2.78,33.18,15.27,40.37,31.45
		C523.14,484.8,504.11,489.58,490.17,497.27z"/>
	<path class="st0" d="M214.1,396.86c-0.23-0.66-0.52-1.2-0.72-1.54l-0.22-0.36l-0.38,0.17c-3.4,1.51-10.79,4.36-18.61,7.37
		c-5.4,2.08-10.95,4.22-15.13,5.9l27.15-22.69c13.81-11.48,18.33-19.32,15.59-27.07c-2.59-7.32-10.52-9.83-20.22-6.41
		c-8.87,3.13-14.63,9.86-16.87,14.66c-1.39,2.9-1.79,4.93-1.28,6.4c0.65,1.85,2.33,2.56,4.37,1.84l0.23-0.08l0.07-0.23
		c2.52-8.62,8.03-14.83,15.53-17.47c6.14-2.16,10.89-0.85,12.4,3.42c2.09,5.92-4.13,12.79-14.1,21.28l-30.36,25.8
		c-2.6,2.16-3.26,4.17-2.28,6.95c0.24,0.67,0.71,1.49,1.18,2.05l0.23,0.27l0.32-0.14c4.76-2.1,13.6-5.18,22.15-8.16
		c7.16-2.5,13.92-4.85,18.04-6.54C213.98,401.23,214.98,399.35,214.1,396.86z"/>
	<path class="st0" d="M238.92,389.17c1.9,0.87,4.04,1.3,6.35,1.3c2.03,0,4.2-0.33,6.46-1.01c8.85-2.64,17.64-10.19,24.11-20.74
		c6.07-9.89,8.61-20.17,6.63-26.83c-2.56-8.59-10.27-12.1-20.14-9.16c-8.86,2.64-17.65,10.19-24.12,20.71
		c-6.08,9.88-8.61,20.17-6.62,26.86C232.83,384.48,235.37,387.55,238.92,389.17z M264.03,338.47c1.54-0.46,3-0.69,4.34-0.69
		c1.28,0,2.45,0.21,3.48,0.64c2.15,0.89,3.63,2.66,4.4,5.25c3.35,11.26-10.76,35.46-26.23,40.07c-6.23,1.85-10.68-0.04-12.22-5.19
		C234.52,367.26,248.65,343.05,264.03,338.47z"/>
	<path class="st0" d="M286.54,377.59l0.17,0.31l0.35-0.08c5.07-1.12,14.34-2.39,23.3-3.63c7.52-1.04,14.62-2.01,19-2.85
		c2.93-0.49,4.28-2.13,3.91-4.74c-0.08-0.55-0.21-1.1-0.4-1.65l-0.14-0.4l-0.41,0.09c-3.64,0.81-11.44,2.15-19.7,3.56
		c-5.71,0.97-11.57,1.98-16,2.8l31.1-16.89c15.8-8.52,21.77-15.32,20.62-23.46c-0.52-3.66-2.5-6.58-5.72-8.44
		c-3.33-1.92-7.76-2.56-12.83-1.83c-9.31,1.32-16.29,6.78-19.43,11.04c-1.93,2.57-2.73,4.48-2.51,6.02
		c0.14,0.96,0.58,1.71,1.27,2.18c0.69,0.46,1.61,0.63,2.65,0.48l0.24-0.03l0.11-0.21c4.17-7.95,10.8-12.95,18.67-14.07
		c3.26-0.46,6.05-0.13,8.08,0.96c1.92,1.03,3.09,2.7,3.4,4.84c0.88,6.21-6.57,11.72-18.02,18.08l-34.85,19.3
		c-2.98,1.6-4.02,3.45-3.61,6.37C285.89,376.06,286.19,376.95,286.54,377.59z"/>
	<path class="st0" d="M369.75,368.65c0.3,0.01,0.59,0.01,0.89,0.01c19.76,0,42.88-21.1,43.34-35.42
		c0.29-8.96-5.92-14.73-16.21-15.07c-0.29-0.01-0.59-0.01-0.89-0.01c-19.76,0-42.88,21.1-43.34,35.42
		C353.25,362.54,359.46,368.31,369.75,368.65z M396.9,324.14c0.22,0,0.45,0,0.67,0.01c6.5,0.21,10.12,3.42,9.95,8.8
		c-0.18,5.59-5.13,13.03-12.9,19.43c-8.13,6.68-17.31,10.56-24.68,10.29c-3.15-0.1-5.72-0.94-7.43-2.42
		c-1.76-1.52-2.6-3.67-2.51-6.38C360.45,342.29,380.94,324.14,396.9,324.14z"/>
	<path class="st0" d="M313.18,65.12c6.03-1.59,13.91-3.27,21.39-2.05c7.29,1.19,13.47,5.3,16.14,10.74c2.05,4.19,2.24,9.1,2.44,14.3
		c0.21,5.66,0.44,11.52,3.16,16.85c5.12,10.03,16.86,13.93,26.51,16.21l1.56,0.37c8.87,2.08,18.04,4.22,23.55,10.61
		c4.86,5.64,6.59,14.14,5.42,26.74c-0.15,1.56,1,2.95,2.57,3.09c0.09,0.01,0.18,0.01,0.27,0.01c1.45,0,2.69-1.11,2.82-2.58
		c0.83-8.96,1.04-21.92-6.77-30.97c-6.71-7.79-17.25-10.26-26.55-12.44l-1.55-0.36c-8.46-2-18.69-5.31-22.76-13.27
		c-2.15-4.21-2.34-9.2-2.54-14.49c-0.21-5.56-0.43-11.32-3.01-16.59c-3.51-7.17-11.11-12.34-20.32-13.85
		c-8.54-1.39-17.18,0.42-23.76,2.16c-1.52,0.4-2.42,1.96-2.02,3.47C310.11,64.62,311.66,65.53,313.18,65.12z"/>
	<path class="st0" d="M320.64,55.35c5.79-6.98,15.66-10.62,24.6-9.05c8.93,1.57,16.99,8.35,20.05,16.88
		c1.14,3.16,1.68,6.55,2.26,10.15c0.87,5.38,1.77,10.95,4.8,15.87c5.79,9.4,16.48,12.52,26.81,15.54
		c9.46,2.76,18.39,5.37,23.34,12.4c3.59,5.1,4.7,12.21,3.34,21.66c-0.77,0.29-1.43,0.81-1.87,1.54c-0.91,1.51-0.62,3.47,0.71,4.77
		c0.79,0.77,1.8,1.17,2.8,1.17c0.69,0,1.38-0.19,1.99-0.58c0.51-0.33,0.9-0.8,1.11-1.36c0.38-0.43,0.63-0.99,0.68-1.61
		c0.04-0.43,0-0.85-0.1-1.25c0.89-5.24,1.09-9.91,0.67-14.09c0.07,0.05,0.13,0.1,0.21,0.14c9.95,5.39,21.32,8.08,32.69,8.08
		c11.61,0,23.21-2.8,33.31-8.4c1.37-0.76,1.87-2.49,1.11-3.86c-0.76-1.37-2.49-1.86-3.86-1.11c-8.24,4.57-17.57,7.09-27.02,7.6
		l33.18-16.49c3.39-1.68,7.23-3.59,10.33-6.51c6.97-6.54,8.99-17.51,4.81-26.1c-3.18-6.54-9-10.68-14.62-14.69
		c-4.84-3.45-9.4-6.7-12.19-11.26c-2.33-3.81-3.28-8.34-4.29-13.13c-1.03-4.92-2.1-10-4.78-14.56c-5.4-9.22-17.18-14.76-29.35-13.79
		c-9.52,0.76-19.44,5.11-29.49,12.93c-0.98,0.76-1.31,2.04-0.93,3.15c-9.9-7.85-21.92-13.04-34.56-14.39
		c-7.56-0.81-18.26-0.44-26.45,5.87c-6.1,4.71-9.99,13.57-8.11,21.39c-1.81-0.69-3.69-1.22-5.61-1.56
		c-11.04-1.94-22.8,2.38-29.96,11.02c-1,1.21-0.83,3,0.37,4C317.85,56.73,319.64,56.56,320.64,55.35z M358.78,44.23
		c-3.93-5.97-0.71-14.72,4.64-18.86c6.69-5.17,15.86-5.42,22.37-4.72c21.33,2.29,40.79,16.41,49.56,35.99
		c0.47,1.05,1.51,1.68,2.6,1.68c0.39,0,0.78-0.08,1.16-0.25c1.43-0.64,2.07-2.32,1.43-3.75c-3.98-8.87-9.99-16.7-17.3-23.02
		c0.73,0.1,1.5-0.08,2.13-0.57c9.16-7.13,18.06-11.08,26.45-11.75c10.04-0.79,19.67,3.62,23.99,11c2.2,3.76,3.13,8.18,4.12,12.86
		c1.06,5.05,2.16,10.27,5,14.92c3.39,5.55,8.65,9.3,13.74,12.93c5.28,3.76,10.26,7.32,12.81,12.55c3.07,6.3,1.52,14.68-3.59,19.48
		c-2.5,2.34-5.79,3.98-8.97,5.56l-33.19,16.5c-1.4,0.7-1.98,2.4-1.28,3.81c0.33,0.65,0.88,1.11,1.51,1.35
		c-10.83,0.2-21.72-2.24-31.2-7.38c-1.23-0.66-2.73-0.33-3.57,0.73c-0.8-3.54-2.13-6.68-4.05-9.4c-6.1-8.65-16.41-11.66-26.39-14.58
		c-9.73-2.84-18.92-5.53-23.57-13.06c-2.44-3.96-3.21-8.74-4.03-13.8c-0.6-3.69-1.21-7.51-2.52-11.16
		c-2.18-6.06-6.27-11.29-11.44-15.02C359.31,45.57,359.18,44.85,358.78,44.23z"/>
	<path class="st0" d="M540.93,126.51l-0.55,0.17c-8.16,2.51-15.17,8.25-19.24,15.74c-0.82,1.51-1.51,3.06-2.18,4.57
		c-1.33,2.98-2.58,5.79-4.6,7.84c-5.1,5.17-13.24,4.3-21.85,3.38c-8.71-0.94-17.72-1.9-25.08,3.03c-2.44,1.64-4.34,3.73-6.17,5.75
		c-1.54,1.7-2.99,3.3-4.67,4.53c-7.47,5.49-17.95,3.03-28.09,0.65c-2.49-0.58-5.07-1.19-7.56-1.66
		c-16.84-3.21-32.86,0.73-42.89,10.54c-6.11,5.98-9.69,14.85-9.57,23.71c0.05,3.46,0.68,6.74,1.81,9.73
		c-31.46-19.57-41.1-48.04-39.61-67.08c0.65-8.25,3.06-16.1,5.62-24.41c1.41-4.58,2.86-9.31,3.98-14.07
		c3.95-16.87,1.84-31.37-5.94-40.81c-1-1.21-2.79-1.38-4-0.39c-1.21,1-1.38,2.79-0.38,4c8.94,10.85,6.84,27.15,4.79,35.9
		c-1.07,4.58-2.5,9.22-3.88,13.7c-2.53,8.24-5.16,16.76-5.85,25.63c-1.69,21.53,9.53,54.09,46.69,74.97
		c0.44,0.25,0.92,0.37,1.39,0.37c0.53,0,1.05-0.16,1.5-0.44c0.57,0.66,1.17,1.29,1.81,1.88c0.55,0.51,1.24,0.76,1.93,0.76
		c0.76,0,1.52-0.31,2.08-0.91c1.07-1.15,1-2.95-0.15-4.02c-3.86-3.59-6.04-8.88-6.12-14.9c-0.1-7.34,2.84-14.66,7.87-19.57
		c8.69-8.51,22.84-11.88,37.84-9.02c2.38,0.45,4.78,1.02,7.33,1.61c10.86,2.55,23.18,5.43,32.76-1.61c2.13-1.56,3.85-3.46,5.5-5.29
		c1.68-1.85,3.27-3.6,5.13-4.85c5.64-3.79,13.25-2.97,21.3-2.1c9.58,1.03,19.48,2.09,26.51-5.04c2.75-2.79,4.27-6.21,5.75-9.52
		c0.65-1.47,1.27-2.86,1.99-4.17c3.37-6.2,9.17-10.95,15.92-13.03l0.53-0.16c2.79-0.84,6.6-2,8.01-5.68
		c0.88-2.29,0.52-4.63-1.03-6.58c-2.65-3.35-8.05-4.62-11.8-4.12c-6.4,0.86-12.64,3.63-17.58,7.78c-1.2,1.01-1.35,2.8-0.34,4
		c1.01,1.2,2.8,1.35,4,0.34c4.12-3.47,9.34-5.78,14.68-6.5c2.37-0.31,5.5,0.64,6.59,2.01c0.33,0.41,0.32,0.67,0.18,1.02
		C544.87,125.31,542.78,125.95,540.93,126.51z"/>
	<path class="st0" d="M472.98,193.61c5.03-6.56,13.04-14.44,22.65-14.7c1.57-0.04,2.81-1.35,2.76-2.92
		c-0.04-1.57-1.36-2.83-2.92-2.76c-9.38,0.26-18.72,6.11-27,16.93c-1.84,2.4-3.58,4.91-5.27,7.34c-4.12,5.94-8.02,11.56-13.29,15.84
		c-14.15,11.5-34.81,10.67-54.76,8.83c-1.57-0.15-2.95,1.01-3.09,2.57c-0.14,1.56,1.01,2.95,2.57,3.09
		c6.64,0.61,13.35,1.11,19.94,1.11c14.36,0,28.09-2.38,38.93-11.19c5.9-4.79,10.21-11,14.37-17.01
		C469.52,198.36,471.23,195.91,472.98,193.61z"/>
	<path class="st0" d="M434.79,93.86c1.17,0,2.35-0.04,3.53-0.13c1.56-0.12,2.74-1.49,2.62-3.05c-0.12-1.57-1.51-2.73-3.05-2.62
		c-12.42,0.94-25.37-4.13-33.82-13.26c-3.46-3.73-5.03-7.19-4.69-10.27c0.18-1.64,1.41-3.37,2.98-4.21
		c0.73-0.39,1.81-0.74,2.84-0.21c1.39,0.72,3.11,0.18,3.83-1.21c0.72-1.39,0.18-3.11-1.21-3.83c-2.48-1.29-5.45-1.2-8.14,0.24
		c-3.23,1.73-5.57,5.1-5.95,8.6c-0.53,4.79,1.55,9.75,6.17,14.75C408.84,88.32,421.68,93.86,434.79,93.86z"/>
	<path class="st0" d="M440.22,81.94c2.05-0.64,14.27-5.78,16.71-12.03c1.78-0.18,3.35,0.96,4.02,1.55c2.23,1.95,3.27,4.94,2.54,7.27
		c-1.67,5.3-8.65,7.59-13.89,6.33c-1.51-0.36-3.06,0.57-3.43,2.1c-0.37,1.53,0.57,3.06,2.1,3.43c1.35,0.33,2.78,0.49,4.22,0.49
		c6.9,0,14.23-3.69,16.42-10.64c1.4-4.47-0.29-9.8-4.22-13.24c-3.44-3.02-7.7-3.8-11.38-2.09c-1.05,0.49-1.69,1.52-1.64,2.67
		c-0.23,1.94-8.1,7.18-13.15,8.75c-2.91,0.91-6.48-0.41-8.1-3c-0.83-1.33-2.59-1.73-3.92-0.9c-1.33,0.83-1.73,2.59-0.9,3.92
		C428.59,81.28,434.87,83.61,440.22,81.94z"/>
	<path class="st0" d="M295.08,225.87c8.56,5.65,18.25,12.06,29.22,14.59c2.82,0.65,5.94,1.04,9.16,1.04c8.12,0,16.87-2.46,23-9.36
		c1.04-1.17,0.94-2.97-0.23-4.01c-1.17-1.04-2.97-0.94-4.01,0.23c-5.7,6.41-16.16,8.98-26.64,6.56c-7.37-1.7-14.14-5.34-20.62-9.41
		c2.42-1.15,4.61-2.92,6.33-4.79c0.87-0.95,1.71-1.96,2.54-2.97c2.13-2.58,4.14-5.02,6.75-6.29c2.57-1.24,5.69-1.33,8.99-1.41
		c3.49-0.09,7.11-0.18,10.59-1.63c1.45-0.6,2.14-2.26,1.54-3.71c-0.6-1.45-2.27-2.14-3.71-1.53c-2.5,1.04-5.44,1.12-8.55,1.2
		c-3.76,0.1-7.65,0.2-11.32,1.98c-3.72,1.8-6.23,4.84-8.65,7.79c-0.77,0.93-1.54,1.87-2.34,2.75c-2.4,2.62-6.3,5.23-9.39,3.98
		c-1.35-0.55-2.9,0.02-3.58,1.31C293.46,223.47,293.87,225.07,295.08,225.87z"/>
	<path class="st0" d="M420.99,238.49c-5.08,1.31-5.76,6.55-6.26,10.38c-0.18,1.38-0.35,2.69-0.66,3.77
		c-0.73,2.53-2.75,3.92-4.31,4.63c-3.2,1.46-7.32,1.46-10.51,0c-5.93-2.72-9.94-8.7-13.86-15.1c-0.82-1.34-2.57-1.76-3.91-0.94
		c-1.34,0.82-1.76,2.57-0.94,3.91c4.39,7.18,8.95,13.91,16.33,17.3c2.35,1.08,4.99,1.62,7.63,1.62c2.64,0,5.27-0.54,7.62-1.62
		c3.73-1.71,6.36-4.63,7.4-8.22c0.43-1.49,0.64-3.08,0.84-4.61c0.31-2.4,0.59-3.91,1.06-4.77c11.85,10.29,28.8,13.96,43.86,9.33
		c1.16-0.36,1.96-1.41,2-2.62c0.04-1.21-0.69-2.32-1.83-2.75l-30.8-11.73c-3.26-1.24-5.33,0.01-6.19,1.59
		c-0.8,1.47-0.39,3.25,0.97,4.24c1.24,0.9,3.2,1.1,4.52-0.02l19.72,7.51c-10.92,0.4-22.16-3.63-30.01-11.19
		C422.96,238.51,421.95,238.24,420.99,238.49z"/>
</g>
</svg>
